<?xml version="1.0" encoding="UTF-8"?>
<!-- Do not edit this file with editors other than draw.io -->
<!DOCTYPE svg PUBLIC "-//W3C//DTD SVG 1.1//EN" "http://www.w3.org/Graphics/SVG/1.1/DTD/svg11.dtd">
<svg xmlns="http://www.w3.org/2000/svg" xmlns:xlink="http://www.w3.org/1999/xlink" version="1.1" width="60px" height="59px" viewBox="-0.5 -0.5 60 59" content="&lt;mxfile host=&quot;app.diagrams.net&quot; modified=&quot;2024-07-19T17:32:58.782Z&quot; agent=&quot;Mozilla/5.0 (Windows NT 10.0; Win64; x64) AppleWebKit/537.36 (KHTML, like Gecko) Chrome/126.0.0.0 Safari/537.36&quot; etag=&quot;t1M-YfmxOSYdB26x_YAt&quot; version=&quot;24.7.2&quot; type=&quot;google&quot; scale=&quot;1&quot; border=&quot;0&quot;&gt;&#10;  &lt;diagram name=&quot;Page-1&quot; id=&quot;-XBgJeSLPV6s0-qxnvVJ&quot;&gt;&#10;    &lt;mxGraphModel dx=&quot;459&quot; dy=&quot;446&quot; grid=&quot;1&quot; gridSize=&quot;10&quot; guides=&quot;1&quot; tooltips=&quot;1&quot; connect=&quot;1&quot; arrows=&quot;1&quot; fold=&quot;1&quot; page=&quot;1&quot; pageScale=&quot;1&quot; pageWidth=&quot;40&quot; pageHeight=&quot;25&quot; math=&quot;0&quot; shadow=&quot;0&quot;&gt;&#10;      &lt;root&gt;&#10;        &lt;mxCell id=&quot;0&quot; /&gt;&#10;        &lt;mxCell id=&quot;1&quot; parent=&quot;0&quot; /&gt;&#10;        &lt;mxCell id=&quot;Teu45QFjrjBwNBdo5O_h-1&quot; value=&quot;&quot; style=&quot;sketch=0;pointerEvents=1;shadow=0;dashed=0;html=1;strokeColor=none;fillColor=#505050;labelPosition=center;verticalLabelPosition=bottom;verticalAlign=top;outlineConnect=0;align=center;shape=mxgraph.office.users.administrator;&quot; vertex=&quot;1&quot; parent=&quot;1&quot;&gt;&#10;          &lt;mxGeometry x=&quot;370&quot; y=&quot;10&quot; width=&quot;60&quot; height=&quot;59&quot; as=&quot;geometry&quot; /&gt;&#10;        &lt;/mxCell&gt;&#10;      &lt;/root&gt;&#10;    &lt;/mxGraphModel&gt;&#10;  &lt;/diagram&gt;&#10;&lt;/mxfile&gt;&#10;"><defs/><g><g data-cell-id="0"><g data-cell-id="1"><g data-cell-id="Teu45QFjrjBwNBdo5O_h-1"><g><rect x="0" y="0" width="60" height="59" fill="none" stroke="none" pointer-events="all"/><path d="M 54.19 57.43 C 54.7 57.43 55.36 56.97 55.36 56.19 C 55.36 55.7 54.88 55.06 54.19 55.06 C 53.44 55.06 53.02 55.76 53.02 56.19 C 53.02 56.87 53.56 57.43 54.19 57.43 Z M 56.9 56.26 C 56.9 57.71 55.63 59 54.23 59 C 52.66 59 51.48 57.67 51.48 56.29 L 51.48 39.4 C 50.08 38.67 48.39 37.03 48.39 34.07 C 48.47 31.71 49.82 29.92 51.48 29.02 L 51.48 33.82 L 54.19 35.39 L 56.9 33.82 L 56.9 29.01 C 58.53 29.83 60 31.78 60 34.2 C 59.96 36.48 58.74 38.38 56.9 39.4 Z M 42.16 58.99 C 41.77 58.99 41.42 58.65 41.42 58.2 L 41.42 46.38 C 41.42 46.03 41.74 45.62 42.14 45.62 L 42.96 45.62 L 42.97 34.62 L 42.66 32.01 L 42.66 28.31 L 44.82 28.31 L 44.83 32.01 L 44.52 34.62 L 44.52 45.62 L 45.3 45.62 C 45.75 45.62 46.07 45.9 46.07 46.42 L 46.07 58.23 C 46.07 58.69 45.71 58.99 45.32 58.99 Z M 23.81 26.19 C 17.57 26.19 12 20.89 12 12.76 C 12 6.46 16.71 0 23.59 0 C 30.3 0 35.23 6.25 35.23 13.07 C 35.23 20.96 29.43 26.19 23.81 26.19 Z M 0 52.62 C 0.54 46.81 1.26 38.88 2.63 34.87 C 3.26 33.05 4.18 31.74 5.67 30.65 C 6.63 29.92 10.04 28.01 10.67 27.69 C 11.77 27.11 12.9 26.81 13.87 27.69 C 19.66 32.9 27.68 32.75 33.56 27.71 C 34.24 27 35.32 27.19 36.03 27.47 C 36.83 27.79 38.89 28.97 40.25 29.79 L 40.25 32.15 L 40.56 34.77 L 40.56 43.65 C 39.7 44.17 39.02 45.17 39.02 46.38 L 39.01 52.62 Z" fill="#505050" stroke="none" pointer-events="all"/></g></g></g></g></g></svg>